<svg xmlns="http://www.w3.org/2000/svg" viewBox="0 0 24 24" role="img" aria-label="Instagram">
  <defs>
    <radialGradient id="ig-a" cx="30%" cy="107%" r="150%">
      <stop offset="0" stop-color="#fdf497"/>
      <stop offset=".18" stop-color="#fdf497"/>
      <stop offset=".36" stop-color="#fd5949"/>
      <stop offset=".62" stop-color="#d6249f"/>
      <stop offset="1" stop-color="#285AEB"/>
    </radialGradient>
  </defs>
  <rect width="24" height="24" rx="6" fill="url(#ig-a)"/>
  <path fill="#fff" d="M12 6.2c1.89 0 2.11.01 2.86.04.69.03 1.07.15 1.32.25.33.13.57.29.82.54.25.25.41.49.54.82.1.25.22.63.25 1.32.03.75.04.97.04 2.86s-.01 2.11-.04 2.86c-.03.69-.15 1.07-.25 1.32-.13.33-.29.57-.54.82-.25.25-.49.41-.82.54-.25.1-.63.22-1.32.25-.75.03-.97.04-2.86.04s-2.11-.01-2.86-.04c-.69-.03-1.07-.15-1.32-.25a2.21 2.21 0 0 1-.82-.54 2.21 2.21 0 0 1-.54-.82c-.1-.25-.22-.63-.25-1.32-.03-.75-.04-.97-.04-2.86s.01-2.11.04-2.86c.03-.69.15-1.07.25-1.32.13-.33.29-.57.54-.82.25-.25.49-.41.82-.54.25-.1.63-.22 1.32-.25.75-.03.97-.04 2.86-.04Zm0-1.27c-1.92 0-2.16.01-2.91.04-.75.03-1.26.15-1.71.33-.47.18-.87.43-1.26.82-.39.39-.64.79-.82 1.26-.18.45-.3.96-.33 1.71-.03.75-.04.99-.04 2.91s.01 2.16.04 2.91c.03.75.15 1.26.33 1.71.18.47.43.87.82 1.26.39.39.79.64 1.26.82.45.18.96.3 1.71.33.75.03.99.04 2.91.04s2.16-.01 2.91-.04c.75-.03 1.26-.15 1.71-.33.47-.18.87-.43 1.26-.82.39-.39.64-.79.82-1.26.18-.45.3-.96.33-1.71.03-.75.04-.99.04-2.91s-.01-2.16-.04-2.91c-.03-.75-.15-1.26-.33-1.71-.18-.47-.43-.87-.82-1.26-.39-.39-.79-.64-1.26-.82-.45-.18-.96-.3-1.71-.33-.75-.03-.99-.04-2.91-.04Zm0 3.44A3.63 3.63 0 1 0 12 15.63 3.63 3.63 0 0 0 12 8.37Zm0 5.99A2.36 2.36 0 1 1 12 9.64a2.36 2.36 0 0 1 0 4.72Zm4.62-6.13a.85.85 0 1 1-.85-.85.85.85 0 0 1 .85.85Z"/>
</svg>
